<svg id="Layer_1" data-name="Layer 1" xmlns="http://www.w3.org/2000/svg" viewBox="0 0 114.63 40"><defs><style>.cls-1{fill:#fff;}.cls-2{fill:none;}</style></defs><title>logo-white-03</title><path class="cls-1" d="M.58,7.8V29.67a13.08,13.08,0,0,0,.34,3.16,4.86,4.86,0,0,0,1.24,2.28,5.51,5.51,0,0,0,2.48,1.38,15.37,15.37,0,0,0,4.1.45H103c5,0,11.06,2.57,11.06,2.57A31.6,31.6,0,0,1,111.37,28V7.8A13.22,13.22,0,0,0,111,4.66a5.05,5.05,0,0,0-1.2-2.3A5.38,5.38,0,0,0,107.42,1a13.87,13.87,0,0,0-4-.47h-95a13.87,13.87,0,0,0-4,.47A5.37,5.37,0,0,0,2.13,2.36a5,5,0,0,0-1.2,2.3A13.13,13.13,0,0,0,.58,7.8ZM2.28,18.72a4.88,4.88,0,0,0,2-2.2,9.13,9.13,0,0,0,.58-3.59V7.54A5.76,5.76,0,0,1,5,5.86,2.27,2.27,0,0,1,5.7,4.81a2.55,2.55,0,0,1,1.21-.55,9.64,9.64,0,0,1,1.84-.15H103.2a9.65,9.65,0,0,1,1.84.15,2.54,2.54,0,0,1,1.2.55,2.25,2.25,0,0,1,.66,1.05,5.69,5.69,0,0,1,.21,1.68v5.38a9.13,9.13,0,0,0,.58,3.59,4.88,4.88,0,0,0,2,2.2,4.87,4.87,0,0,0-2,2.22,9.17,9.17,0,0,0-.58,3.58v5.42a3.34,3.34,0,0,1-.87,2.69,5,5,0,0,1-3,.7H8.75a5,5,0,0,1-3-.7,3.35,3.35,0,0,1-.86-2.69V24.51a9.17,9.17,0,0,0-.58-3.58A4.86,4.86,0,0,0,2.28,18.72Z"/><path class="cls-2" d="M2.28,18.72a4.88,4.88,0,0,0,2-2.2,9.13,9.13,0,0,0,.58-3.59V7.54A5.76,5.76,0,0,1,5,5.86,2.27,2.27,0,0,1,5.7,4.81a2.55,2.55,0,0,1,1.21-.55,9.64,9.64,0,0,1,1.84-.15H103.2a9.65,9.65,0,0,1,1.84.15,2.54,2.54,0,0,1,1.2.55,2.25,2.25,0,0,1,.66,1.05,5.69,5.69,0,0,1,.21,1.68v5.38a9.13,9.13,0,0,0,.58,3.59,4.88,4.88,0,0,0,2,2.2,4.87,4.87,0,0,0-2,2.22,9.17,9.17,0,0,0-.58,3.58v5.42a3.34,3.34,0,0,1-.87,2.69,5,5,0,0,1-3,.7H8.75a5,5,0,0,1-3-.7,3.35,3.35,0,0,1-.86-2.69V24.51a9.17,9.17,0,0,0-.58-3.58A4.86,4.86,0,0,0,2.28,18.72Z"/><path class="cls-1" d="M24,24.4a3.63,3.63,0,0,1,.16.59.36.36,0,0,1-.08.33.68.68,0,0,1-.41.14q-.29,0-.8,0l-.83,0a2,2,0,0,1-.45-.06.41.41,0,0,1-.22-.13.71.71,0,0,1-.1-.22l-.91-2.71H15.34L14.49,25a.84.84,0,0,1-.11.24.44.44,0,0,1-.22.16,1.6,1.6,0,0,1-.43.08l-.72,0a6.94,6.94,0,0,1-.75,0,.57.57,0,0,1-.37-.15.41.41,0,0,1-.07-.34,3.39,3.39,0,0,1,.16-.58l4.15-11.95a1,1,0,0,1,.15-.29.52.52,0,0,1,.27-.17,2.1,2.1,0,0,1,.5-.07l.85,0,1,0a2.61,2.61,0,0,1,.57.07.54.54,0,0,1,.29.17,1,1,0,0,1,.15.31Zm-6.18-9.87h0l-1.9,5.72h3.82Z"/><path class="cls-1" d="M45,25a.32.32,0,0,1-.06.19.4.4,0,0,1-.21.14,2,2,0,0,1-.4.08,5.3,5.3,0,0,1-.63,0,5.19,5.19,0,0,1-.62,0,1.92,1.92,0,0,1-.4-.08.43.43,0,0,1-.21-.14.3.3,0,0,1-.06-.19v-11h0L38.51,25a.51.51,0,0,1-.14.22.66.66,0,0,1-.25.14,1.71,1.71,0,0,1-.41.07l-.6,0a6,6,0,0,1-.6,0,1.82,1.82,0,0,1-.41-.08.76.76,0,0,1-.25-.14.4.4,0,0,1-.12-.2L31.95,14.08h0V25a.32.32,0,0,1-.06.19.41.41,0,0,1-.21.14,2.16,2.16,0,0,1-.4.08,6.32,6.32,0,0,1-1.25,0,2,2,0,0,1-.4-.08.4.4,0,0,1-.21-.14.32.32,0,0,1-.06-.19V13a1.1,1.1,0,0,1,.28-.81,1,1,0,0,1,.75-.28h1.79A3.76,3.76,0,0,1,33,12a1.59,1.59,0,0,1,.59.26,1.48,1.48,0,0,1,.42.48,3.44,3.44,0,0,1,.29.73l2.91,8h0l3-8a4.22,4.22,0,0,1,.3-.74,1.72,1.72,0,0,1,.37-.49,1.24,1.24,0,0,1,.5-.27A2.63,2.63,0,0,1,42.1,12h1.84a1.44,1.44,0,0,1,.48.07.82.82,0,0,1,.33.21.93.93,0,0,1,.2.34A1.46,1.46,0,0,1,45,13Z"/><path class="cls-1" d="M54.12,25a.29.29,0,0,1-.07.19.47.47,0,0,1-.22.14,2.18,2.18,0,0,1-.42.08,7.07,7.07,0,0,1-1.33,0,2.19,2.19,0,0,1-.42-.08.47.47,0,0,1-.22-.14.29.29,0,0,1-.07-.19V12.33a.29.29,0,0,1,.07-.19.48.48,0,0,1,.23-.14,2.31,2.31,0,0,1,.42-.08,5.66,5.66,0,0,1,.66,0,5.78,5.78,0,0,1,.67,0,2.19,2.19,0,0,1,.42.08.48.48,0,0,1,.22.14.29.29,0,0,1,.07.19Z"/><path class="cls-1" d="M69.42,13.07a4.36,4.36,0,0,1,0,.52,1.41,1.41,0,0,1-.08.34.46.46,0,0,1-.13.19.27.27,0,0,1-.17.06H65.64V25a.29.29,0,0,1-.07.19.47.47,0,0,1-.22.14,2.19,2.19,0,0,1-.42.08,7,7,0,0,1-1.32,0,2.19,2.19,0,0,1-.42-.08.47.47,0,0,1-.22-.14.29.29,0,0,1-.07-.19V14.19H59.52a.26.26,0,0,1-.18-.06.48.48,0,0,1-.12-.19,1.39,1.39,0,0,1-.08-.34,4.33,4.33,0,0,1,0-.52,4.58,4.58,0,0,1,0-.53,1.41,1.41,0,0,1,.08-.35.44.44,0,0,1,.12-.19.28.28,0,0,1,.18-.06H69a.28.28,0,0,1,.17.06.42.42,0,0,1,.13.19,1.42,1.42,0,0,1,.08.35A4.61,4.61,0,0,1,69.42,13.07Z"/><path class="cls-1" d="M84.25,25a.37.37,0,0,1-.06.2.42.42,0,0,1-.22.15,2,2,0,0,1-.44.09,6.62,6.62,0,0,1-.71,0,6.34,6.34,0,0,1-1-.05,1,1,0,0,1-.43-.16.74.74,0,0,1-.2-.25l-4.07-6.39V25a.32.32,0,0,1-.06.2.47.47,0,0,1-.22.14,1.9,1.9,0,0,1-.42.09,7.07,7.07,0,0,1-1.33,0,1.91,1.91,0,0,1-.42-.09.5.5,0,0,1-.22-.14.3.3,0,0,1-.07-.2V12.34a.3.3,0,0,1,.07-.2.48.48,0,0,1,.22-.14,2.19,2.19,0,0,1,.42-.08,7.07,7.07,0,0,1,1.33,0,2.19,2.19,0,0,1,.42.08.44.44,0,0,1,.22.14.32.32,0,0,1,.06.2v5.73l3.94-5.72a.7.7,0,0,1,.45-.36,2,2,0,0,1,.43-.07l.67,0a6.18,6.18,0,0,1,.69,0,2,2,0,0,1,.43.09.47.47,0,0,1,.22.14.3.3,0,0,1,.06.19.81.81,0,0,1-.09.36q-.09.19-.35.59L79.9,18.13l4,6.09a4.8,4.8,0,0,1,.28.57A.75.75,0,0,1,84.25,25Z"/><path class="cls-1" d="M99.32,25a.37.37,0,0,1-.06.2.42.42,0,0,1-.22.15,2,2,0,0,1-.44.09,6.62,6.62,0,0,1-.71,0,6.34,6.34,0,0,1-1-.05,1,1,0,0,1-.43-.16.74.74,0,0,1-.2-.25l-4.07-6.39V25a.32.32,0,0,1-.06.2.47.47,0,0,1-.22.14,1.9,1.9,0,0,1-.42.09,7.07,7.07,0,0,1-1.33,0,1.91,1.91,0,0,1-.42-.09.5.5,0,0,1-.22-.14.3.3,0,0,1-.07-.2V12.34a.3.3,0,0,1,.07-.2.48.48,0,0,1,.22-.14,2.19,2.19,0,0,1,.42-.08,7.07,7.07,0,0,1,1.33,0,2.19,2.19,0,0,1,.42.08.44.44,0,0,1,.22.14.32.32,0,0,1,.06.2v5.73l3.94-5.72a.7.7,0,0,1,.45-.36,2,2,0,0,1,.43-.07l.67,0a6.18,6.18,0,0,1,.69,0,2,2,0,0,1,.43.09.47.47,0,0,1,.22.14.3.3,0,0,1,.06.19.81.81,0,0,1-.09.36q-.09.19-.35.59L95,18.13l4,6.09a4.8,4.8,0,0,1,.28.57A.75.75,0,0,1,99.32,25Z"/></svg>