<svg id="Layer_1" data-name="Layer 1" xmlns="http://www.w3.org/2000/svg" viewBox="0 0 125.36 50.02"><defs><style>.cls-1{fill:#998764;}</style></defs><path class="cls-1" d="M99,6.18h-2A1,1,0,0,0,96.26,8l6.39,5.54h0l13,11.27.32.27-.32.28-13,11.27h0l-6.39,5.54a1,1,0,0,0,.66,1.79h2a1,1,0,0,0,.66-.25l10.62-9.19,10-8.67a1,1,0,0,0,0-1.53l-10-8.67L99.61,6.43A1,1,0,0,0,99,6.18ZM2,24.78l11.21-9.71h0L24.38,5.36l.32-.28h5.13l-1,.85a1,1,0,0,1-.67.25H26.34a1,1,0,0,0-.66.25L15.07,15.62h0l-10,8.67a1,1,0,0,0,0,1.53l10,8.67h0l10.61,9.19a1,1,0,0,0,.66.25H89.11l-1,.85a1,1,0,0,1-.67.24H37.62A1,1,0,0,0,37,46.81h0a1,1,0,0,0,.66.25H87.67a1,1,0,0,0,.66-.25L90.4,45h0c3.45-3,6.93-6,10.38-9h0l11.82-10.23a1,1,0,0,0,0-1.53L100.75,14.05h0L91.94,6.43a1,1,0,0,0-.66-.25H34a1,1,0,0,0-.67.25l-8.8,7.62h0L12.72,24.29a1,1,0,0,0,0,1.53L24.53,36.05h0l7.84,6.8H30.23a1,1,0,0,1-.66-.25l-6.93-6h0l-13-11.27-.32-.28.32-.27,13-11.27h0l4-3.5h0l9-7.77L36,2H89.32l.31.27,2,1.74H89.49a1,1,0,0,1-.67-.25l-.49-.42a1,1,0,0,0-.66-.25H37.62A1,1,0,0,0,37,3.3h0a1,1,0,0,0,.66,1.78h63l.32.28,11.21,9.71,11.21,9.71.32.27-.32.28L112.12,35l-11.21,9.71-.32.27H93.31a1,1,0,0,0-.67.25l-3,2.61-.31.27H36l-.32-.27-3-2.61A1,1,0,0,0,32,45H24.7l-.32-.27L13.17,35h0L2,25.33l-.32-.28Z"/><path class="cls-1" d="M31.09,27.19c-.12.63-.53,2.19-.67,2.58H23.14v-.54c1.29-.09,1.41-.19,1.41-1.42v-5.6c0-1.24-.15-1.35-1.25-1.44v-.55h4.58v.55c-1.14.1-1.29.2-1.29,1.44v5.7c0,.81,0,1.17.84,1.19h.76a1.47,1.47,0,0,0,1.41-.57A6.26,6.26,0,0,0,30.53,27Z"/><path class="cls-1" d="M37.09,20A4.79,4.79,0,0,1,42,24.9,5,5,0,1,1,37.09,20Zm-.22.64c-1.5,0-2.6,1.47-2.6,4.07s1,4.62,3,4.62c1.4,0,2.48-1.35,2.48-4C39.72,22.4,38.58,20.66,36.87,20.66Z"/><path class="cls-1" d="M53.86,20.77c-1.15.11-1.25.2-1.25,1.42v5.63c0,1.22.11,1.31,1.25,1.41v.54H49.31v-.54c1.17-.15,1.25-.19,1.25-1.41V25.06h-4v2.76c0,1.22.13,1.29,1.23,1.41v.54H43.3v-.54c1.09-.12,1.25-.19,1.25-1.41V22.19c0-1.22-.13-1.33-1.25-1.42v-.55h4.53v.55c-1.12.1-1.23.2-1.23,1.42v2.1h4v-2.1c0-1.22-.14-1.31-1.25-1.42v-.55h4.55Z"/><path class="cls-1" d="M63.17,27.28c-.08.39-.49,2.08-.62,2.49H54.92v-.53c1.34-.13,1.43-.2,1.43-1.43V22.19c0-1.25-.18-1.33-1.18-1.42v-.55H60c1.54,0,2.06,0,2.26,0,0,.27.09,1.47.15,2.38l-.57.08a3.88,3.88,0,0,0-.64-1.37c-.26-.29-.45-.38-1.2-.38H59c-.55,0-.61,0-.61.53V24.5h1.44c.82,0,1-.22,1.19-1.26h.57v3.27H61c-.24-1.09-.35-1.26-1.21-1.26H58.38v2.53c0,1,0,1.32.94,1.33h1c.82,0,1-.1,1.37-.5a6.48,6.48,0,0,0,.89-1.47Z"/><path class="cls-1" d="M77.55,20.77c-1.06.13-1.25.35-1.66,1.55s-1.48,4.62-2.41,7.62h-.82c-.75-2.12-1.59-4.29-2.43-6.5-.76,2.22-1.5,4.37-2.19,6.5h-.85c-.59-2.08-1.53-5.12-2.35-7.72-.37-1.12-.59-1.36-1.48-1.45v-.55h4.43v.55c-1.1.1-1.13.32-.92,1.08.48,1.69,1,3.41,1.48,5,.75-2.07,1.46-4.29,2.13-6.56h.78c.81,2.24,1.65,4.43,2.46,6.58.54-1.59,1.24-4,1.45-4.88s.06-1.13-1.2-1.23v-.55h3.58Z"/><path class="cls-1" d="M81.63,29.77v-.54c.93-.13.93-.29.72-.93-.14-.44-.38-1.1-.6-1.69H78.88c-.16.46-.36,1-.51,1.47-.31.93,0,1.05,1.2,1.15v.54H76v-.54c.92-.12,1.16-.25,1.66-1.48l3-7.6.71-.13c.94,2.55,1.94,5.17,2.89,7.62.55,1.37.68,1.47,1.63,1.59v.54Zm-1.29-7c-.43,1.06-.84,2-1.21,3.12h2.34Z"/><path class="cls-1" d="M94.21,27.19c-.12.63-.53,2.19-.66,2.58H86.26v-.54c1.29-.09,1.41-.19,1.41-1.42v-5.6c0-1.24-.15-1.35-1.25-1.44v-.55H91v.55c-1.14.1-1.29.2-1.29,1.44v5.7c0,.81,0,1.17.84,1.19h.76a1.47,1.47,0,0,0,1.41-.57A6.26,6.26,0,0,0,93.65,27Z"/><path class="cls-1" d="M100.45,29.77v-.54c.93-.13.93-.29.72-.93-.15-.44-.38-1.1-.6-1.69H97.7c-.16.46-.37,1-.51,1.47-.31.93,0,1.05,1.2,1.15v.54H94.76v-.54c.93-.12,1.16-.25,1.66-1.48l3.06-7.6.7-.13c.95,2.55,1.94,5.17,2.9,7.62.54,1.37.67,1.47,1.63,1.59v.54Zm-1.29-7c-.43,1.06-.84,2-1.21,3.12h2.34Z"/></svg>